<svg xmlns="http://www.w3.org/2000/svg" version="1.1" xmlns:xlink="http://www.w3.org/1999/xlink" xmlns:svgjs="http://svgjs.com/svgjs" width="1440" height="560" preserveAspectRatio="none" viewBox="0 0 1440 560"><g mask="url(&quot;#SvgjsMask1012&quot;)" fill="none"><path d="M1191 134L1550 493" stroke-width="8" stroke="url(#SvgjsLinearGradient1013)" stroke-linecap="round" class="BottomRight"></path><path d="M157 272L-142 -27" stroke-width="8" stroke="url(#SvgjsLinearGradient1014)" stroke-linecap="round" class="TopLeft"></path><path d="M1412 463L1218 269" stroke-width="6" stroke="url(#SvgjsLinearGradient1014)" stroke-linecap="round" class="TopLeft"></path><path d="M1089 335L895 141" stroke-width="6" stroke="url(#SvgjsLinearGradient1014)" stroke-linecap="round" class="TopLeft"></path><path d="M309 183L687 561" stroke-width="6" stroke="url(#SvgjsLinearGradient1014)" stroke-linecap="round" class="TopLeft"></path><path d="M586 542L801 757" stroke-width="8" stroke="url(#SvgjsLinearGradient1013)" stroke-linecap="round" class="BottomRight"></path><path d="M974 447L1137 610" stroke-width="6" stroke="url(#SvgjsLinearGradient1014)" stroke-linecap="round" class="TopLeft"></path><path d="M379 151L594 366" stroke-width="6" stroke="url(#SvgjsLinearGradient1014)" stroke-linecap="round" class="TopLeft"></path><path d="M579 289L427 137" stroke-width="6" stroke="url(#SvgjsLinearGradient1013)" stroke-linecap="round" class="BottomRight"></path><path d="M338 267L609 538" stroke-width="10" stroke="url(#SvgjsLinearGradient1013)" stroke-linecap="round" class="BottomRight"></path><path d="M1176 289L909 22" stroke-width="6" stroke="url(#SvgjsLinearGradient1014)" stroke-linecap="round" class="TopLeft"></path><path d="M304 105L-52 -251" stroke-width="8" stroke="url(#SvgjsLinearGradient1013)" stroke-linecap="round" class="BottomRight"></path><path d="M62 461L374 773" stroke-width="8" stroke="url(#SvgjsLinearGradient1014)" stroke-linecap="round" class="TopLeft"></path><path d="M1104 324L1498 718" stroke-width="10" stroke="url(#SvgjsLinearGradient1013)" stroke-linecap="round" class="BottomRight"></path><path d="M569 169L824 424" stroke-width="8" stroke="url(#SvgjsLinearGradient1013)" stroke-linecap="round" class="BottomRight"></path><path d="M675 436L407 168" stroke-width="6" stroke="url(#SvgjsLinearGradient1013)" stroke-linecap="round" class="BottomRight"></path><path d="M1118 174L749 -195" stroke-width="6" stroke="url(#SvgjsLinearGradient1013)" stroke-linecap="round" class="BottomRight"></path><path d="M6 65L-305 -246" stroke-width="8" stroke="url(#SvgjsLinearGradient1013)" stroke-linecap="round" class="BottomRight"></path><path d="M524 507L171 154" stroke-width="10" stroke="url(#SvgjsLinearGradient1014)" stroke-linecap="round" class="TopLeft"></path><path d="M670 447L385 162" stroke-width="10" stroke="url(#SvgjsLinearGradient1014)" stroke-linecap="round" class="TopLeft"></path><path d="M271 389L-29 89" stroke-width="8" stroke="url(#SvgjsLinearGradient1014)" stroke-linecap="round" class="TopLeft"></path><path d="M462 14L243 -205" stroke-width="6" stroke="url(#SvgjsLinearGradient1013)" stroke-linecap="round" class="BottomRight"></path><path d="M854 481L1236 863" stroke-width="8" stroke="url(#SvgjsLinearGradient1014)" stroke-linecap="round" class="TopLeft"></path><path d="M288 18L535 265" stroke-width="8" stroke="url(#SvgjsLinearGradient1014)" stroke-linecap="round" class="TopLeft"></path><path d="M1214 332L1451 569" stroke-width="6" stroke="url(#SvgjsLinearGradient1013)" stroke-linecap="round" class="BottomRight"></path><path d="M474 225L836 587" stroke-width="10" stroke="url(#SvgjsLinearGradient1013)" stroke-linecap="round" class="BottomRight"></path><path d="M1184 507L1342 665" stroke-width="8" stroke="url(#SvgjsLinearGradient1013)" stroke-linecap="round" class="BottomRight"></path><path d="M1362 148L1522 308" stroke-width="6" stroke="url(#SvgjsLinearGradient1014)" stroke-linecap="round" class="TopLeft"></path><path d="M529 455L368 294" stroke-width="6" stroke="url(#SvgjsLinearGradient1013)" stroke-linecap="round" class="BottomRight"></path><path d="M740 112L1041 413" stroke-width="8" stroke="url(#SvgjsLinearGradient1014)" stroke-linecap="round" class="TopLeft"></path><path d="M759 438L1042 721" stroke-width="8" stroke="url(#SvgjsLinearGradient1014)" stroke-linecap="round" class="TopLeft"></path><path d="M152 17L-102 -237" stroke-width="10" stroke="url(#SvgjsLinearGradient1014)" stroke-linecap="round" class="TopLeft"></path><path d="M1148 126L1510 488" stroke-width="8" stroke="url(#SvgjsLinearGradient1014)" stroke-linecap="round" class="TopLeft"></path><path d="M1051 170L1340 459" stroke-width="10" stroke="url(#SvgjsLinearGradient1014)" stroke-linecap="round" class="TopLeft"></path><path d="M724 495L1055 826" stroke-width="6" stroke="url(#SvgjsLinearGradient1014)" stroke-linecap="round" class="TopLeft"></path><path d="M1167 417L1406 656" stroke-width="10" stroke="url(#SvgjsLinearGradient1014)" stroke-linecap="round" class="TopLeft"></path><path d="M398 524L605 731" stroke-width="10" stroke="url(#SvgjsLinearGradient1013)" stroke-linecap="round" class="BottomRight"></path><path d="M815 370L1178 733" stroke-width="6" stroke="url(#SvgjsLinearGradient1013)" stroke-linecap="round" class="BottomRight"></path><path d="M536 427L806 697" stroke-width="10" stroke="url(#SvgjsLinearGradient1013)" stroke-linecap="round" class="BottomRight"></path></g><defs><mask id="SvgjsMask1012"><rect width="1440" height="560" fill="#ffffff"></rect></mask><linearGradient x1="0%" y1="0%" x2="100%" y2="100%" id="SvgjsLinearGradient1013"><stop stop-color="rgba(53, 53, 53, 0)" offset="0"></stop><stop stop-color="rgba(53, 53, 53, 1)" offset="1"></stop></linearGradient><linearGradient x1="100%" y1="100%" x2="0%" y2="0%" id="SvgjsLinearGradient1014"><stop stop-color="rgba(53, 53, 53, 0)" offset="0"></stop><stop stop-color="rgba(53, 53, 53, 1)" offset="1"></stop></linearGradient></defs></svg>