<svg xmlns="http://www.w3.org/2000/svg" version="1.1" xmlns:xlink="http://www.w3.org/1999/xlink" xmlns:svgjs="http://svgjs.com/svgjs" width="1440" height="560" preserveAspectRatio="none" viewBox="0 0 1440 560"><g mask="url(&quot;#SvgjsMask1030&quot;)" fill="none"><path d="M-70.82 411.52L-70.82 411.52" stroke="rgba(0, 255, 162, 1)" stroke-width="1.5"></path><path d="M-70.82 411.52L-71.36 491.8" stroke="rgba(0, 255, 162, 1)" stroke-width="1.5"></path><path d="M-70.82 411.52L57.64 400.72" stroke="rgba(0, 255, 162, 1)" stroke-width="1.5"></path><path d="M-70.82 411.52L61.25 640.49" stroke="rgba(0, 255, 162, 1)" stroke-width="1.5"></path><path d="M-70.82 411.52L220.86 343.88" stroke="rgba(0, 255, 162, 1)" stroke-width="1.5"></path><path d="M-70.82 411.52L261.64 527.48" stroke="rgba(0, 255, 162, 1)" stroke-width="1.5"></path><path d="M-70.82 411.52L257.92 658.94" stroke="rgba(0, 255, 162, 1)" stroke-width="1.5"></path><path d="M-71.36 491.8L-71.36 491.8" stroke="rgba(0, 255, 162, 1)" stroke-width="1.5"></path><path d="M-71.36 491.8L57.64 400.72" stroke="rgba(0, 255, 162, 1)" stroke-width="1.5"></path><path d="M57.64 400.72L57.64 400.72" stroke="rgba(0, 255, 162, 1)" stroke-width="1.5"></path><path d="M57.64 400.72L220.86 343.88" stroke="rgba(0, 255, 162, 1)" stroke-width="1.5"></path><path d="M57.64 400.72L61.25 640.49" stroke="rgba(0, 255, 162, 1)" stroke-width="1.5"></path><path d="M57.64 400.72L261.64 527.48" stroke="rgba(0, 255, 162, 1)" stroke-width="1.5"></path><path d="M57.64 400.72L363.61 356.47" stroke="rgba(0, 255, 162, 1)" stroke-width="1.5"></path><path d="M61.25 640.49L61.25 640.49" stroke="rgba(0, 255, 162, 1)" stroke-width="1.5"></path><path d="M61.25 640.49L257.92 658.94" stroke="rgba(0, 255, 162, 1)" stroke-width="1.5"></path><path d="M61.25 640.49L-71.36 491.8" stroke="rgba(0, 255, 162, 1)" stroke-width="1.5"></path><path d="M61.25 640.49L261.64 527.48" stroke="rgba(0, 255, 162, 1)" stroke-width="1.5"></path><path d="M61.25 640.49L220.86 343.88" stroke="rgba(0, 255, 162, 1)" stroke-width="1.5"></path><path d="M220.86 343.88L220.86 343.88" stroke="rgba(0, 255, 162, 1)" stroke-width="1.5"></path><path d="M220.86 343.88L363.61 356.47" stroke="rgba(0, 255, 162, 1)" stroke-width="1.5"></path><path d="M220.86 343.88L261.64 527.48" stroke="rgba(0, 255, 162, 1)" stroke-width="1.5"></path><path d="M220.86 343.88L383.67 535.42" stroke="rgba(0, 255, 162, 1)" stroke-width="1.5"></path><path d="M220.86 343.88L257.92 658.94" stroke="rgba(0, 255, 162, 1)" stroke-width="1.5"></path><path d="M261.64 527.48L261.64 527.48" stroke="rgba(0, 255, 162, 1)" stroke-width="1.5"></path><path d="M261.64 527.48L383.67 535.42" stroke="rgba(0, 255, 162, 1)" stroke-width="1.5"></path><path d="M261.64 527.48L257.92 658.94" stroke="rgba(0, 255, 162, 1)" stroke-width="1.5"></path><path d="M261.64 527.48L363.61 356.47" stroke="rgba(0, 255, 162, 1)" stroke-width="1.5"></path><path d="M257.92 658.94L257.92 658.94" stroke="rgba(0, 255, 162, 1)" stroke-width="1.5"></path><path d="M257.92 658.94L383.67 535.42" stroke="rgba(0, 255, 162, 1)" stroke-width="1.5"></path><path d="M257.92 658.94L501.15 669.3" stroke="rgba(0, 255, 162, 1)" stroke-width="1.5"></path><path d="M363.61 356.47L363.61 356.47" stroke="rgba(0, 255, 162, 1)" stroke-width="1.5"></path><path d="M363.61 356.47L383.67 535.42" stroke="rgba(0, 255, 162, 1)" stroke-width="1.5"></path><path d="M363.61 356.47L544.48 407.26" stroke="rgba(0, 255, 162, 1)" stroke-width="1.5"></path><path d="M363.61 356.47L532.88 515.3" stroke="rgba(0, 255, 162, 1)" stroke-width="1.5"></path><path d="M383.67 535.42L383.67 535.42" stroke="rgba(0, 255, 162, 1)" stroke-width="1.5"></path><path d="M383.67 535.42L532.88 515.3" stroke="rgba(0, 255, 162, 1)" stroke-width="1.5"></path><path d="M544.48 407.26L544.48 407.26" stroke="rgba(0, 255, 162, 1)" stroke-width="1.5"></path><path d="M544.48 407.26L646.27 394.4" stroke="rgba(0, 255, 162, 1)" stroke-width="1.5"></path><path d="M544.48 407.26L532.88 515.3" stroke="rgba(0, 255, 162, 1)" stroke-width="1.5"></path><path d="M544.48 407.26L383.67 535.42" stroke="rgba(0, 255, 162, 1)" stroke-width="1.5"></path><path d="M544.48 407.26L709.34 550.04" stroke="rgba(0, 255, 162, 1)" stroke-width="1.5"></path><path d="M532.88 515.3L532.88 515.3" stroke="rgba(0, 255, 162, 1)" stroke-width="1.5"></path><path d="M532.88 515.3L501.15 669.3" stroke="rgba(0, 255, 162, 1)" stroke-width="1.5"></path><path d="M532.88 515.3L646.27 394.4" stroke="rgba(0, 255, 162, 1)" stroke-width="1.5"></path><path d="M532.88 515.3L709.34 550.04" stroke="rgba(0, 255, 162, 1)" stroke-width="1.5"></path><path d="M501.15 669.3L501.15 669.3" stroke="rgba(0, 255, 162, 1)" stroke-width="1.5"></path><path d="M501.15 669.3L383.67 535.42" stroke="rgba(0, 255, 162, 1)" stroke-width="1.5"></path><path d="M501.15 669.3L705.84 686.03" stroke="rgba(0, 255, 162, 1)" stroke-width="1.5"></path><path d="M501.15 669.3L709.34 550.04" stroke="rgba(0, 255, 162, 1)" stroke-width="1.5"></path><path d="M705.25 222.64L705.25 222.64" stroke="rgba(0, 255, 162, 1)" stroke-width="1.5"></path><path d="M705.25 222.64L840.38 245.29" stroke="rgba(0, 255, 162, 1)" stroke-width="1.5"></path><path d="M705.25 222.64L646.27 394.4" stroke="rgba(0, 255, 162, 1)" stroke-width="1.5"></path><path d="M705.25 222.64L817.9 380.87" stroke="rgba(0, 255, 162, 1)" stroke-width="1.5"></path><path d="M646.27 394.4L646.27 394.4" stroke="rgba(0, 255, 162, 1)" stroke-width="1.5"></path><path d="M709.34 550.04L709.34 550.04" stroke="rgba(0, 255, 162, 1)" stroke-width="1.5"></path><path d="M709.34 550.04L795.11 496.4" stroke="rgba(0, 255, 162, 1)" stroke-width="1.5"></path><path d="M709.34 550.04L705.84 686.03" stroke="rgba(0, 255, 162, 1)" stroke-width="1.5"></path><path d="M709.34 550.04L821.13 653.78" stroke="rgba(0, 255, 162, 1)" stroke-width="1.5"></path><path d="M709.34 550.04L646.27 394.4" stroke="rgba(0, 255, 162, 1)" stroke-width="1.5"></path><path d="M705.84 686.03L705.84 686.03" stroke="rgba(0, 255, 162, 1)" stroke-width="1.5"></path><path d="M705.84 686.03L821.13 653.78" stroke="rgba(0, 255, 162, 1)" stroke-width="1.5"></path><path d="M840.38 245.29L840.38 245.29" stroke="rgba(0, 255, 162, 1)" stroke-width="1.5"></path><path d="M840.38 245.29L952.51 203.13" stroke="rgba(0, 255, 162, 1)" stroke-width="1.5"></path><path d="M840.38 245.29L817.9 380.87" stroke="rgba(0, 255, 162, 1)" stroke-width="1.5"></path><path d="M840.38 245.29L948.72 378.7" stroke="rgba(0, 255, 162, 1)" stroke-width="1.5"></path><path d="M817.9 380.87L817.9 380.87" stroke="rgba(0, 255, 162, 1)" stroke-width="1.5"></path><path d="M817.9 380.87L795.11 496.4" stroke="rgba(0, 255, 162, 1)" stroke-width="1.5"></path><path d="M817.9 380.87L948.72 378.7" stroke="rgba(0, 255, 162, 1)" stroke-width="1.5"></path><path d="M817.9 380.87L646.27 394.4" stroke="rgba(0, 255, 162, 1)" stroke-width="1.5"></path><path d="M817.9 380.87L951.07 497.05" stroke="rgba(0, 255, 162, 1)" stroke-width="1.5"></path><path d="M795.11 496.4L795.11 496.4" stroke="rgba(0, 255, 162, 1)" stroke-width="1.5"></path><path d="M795.11 496.4L951.07 497.05" stroke="rgba(0, 255, 162, 1)" stroke-width="1.5"></path><path d="M795.11 496.4L821.13 653.78" stroke="rgba(0, 255, 162, 1)" stroke-width="1.5"></path><path d="M795.11 496.4L646.27 394.4" stroke="rgba(0, 255, 162, 1)" stroke-width="1.5"></path><path d="M795.11 496.4L948.72 378.7" stroke="rgba(0, 255, 162, 1)" stroke-width="1.5"></path><path d="M821.13 653.78L821.13 653.78" stroke="rgba(0, 255, 162, 1)" stroke-width="1.5"></path><path d="M992.39 -111.69L992.39 -111.69" stroke="rgba(0, 255, 162, 1)" stroke-width="1.5"></path><path d="M992.39 -111.69L1097.29 -38.11" stroke="rgba(0, 255, 162, 1)" stroke-width="1.5"></path><path d="M992.39 -111.69L939.38 103.01" stroke="rgba(0, 255, 162, 1)" stroke-width="1.5"></path><path d="M992.39 -111.69L1107.98 102.04" stroke="rgba(0, 255, 162, 1)" stroke-width="1.5"></path><path d="M992.39 -111.69L1263.11 -78.41" stroke="rgba(0, 255, 162, 1)" stroke-width="1.5"></path><path d="M992.39 -111.69L952.51 203.13" stroke="rgba(0, 255, 162, 1)" stroke-width="1.5"></path><path d="M939.38 103.01L939.38 103.01" stroke="rgba(0, 255, 162, 1)" stroke-width="1.5"></path><path d="M939.38 103.01L952.51 203.13" stroke="rgba(0, 255, 162, 1)" stroke-width="1.5"></path><path d="M939.38 103.01L1107.98 102.04" stroke="rgba(0, 255, 162, 1)" stroke-width="1.5"></path><path d="M939.38 103.01L840.38 245.29" stroke="rgba(0, 255, 162, 1)" stroke-width="1.5"></path><path d="M952.51 203.13L952.51 203.13" stroke="rgba(0, 255, 162, 1)" stroke-width="1.5"></path><path d="M952.51 203.13L948.72 378.7" stroke="rgba(0, 255, 162, 1)" stroke-width="1.5"></path><path d="M952.51 203.13L1129.01 219.26" stroke="rgba(0, 255, 162, 1)" stroke-width="1.5"></path><path d="M948.72 378.7L948.72 378.7" stroke="rgba(0, 255, 162, 1)" stroke-width="1.5"></path><path d="M948.72 378.7L951.07 497.05" stroke="rgba(0, 255, 162, 1)" stroke-width="1.5"></path><path d="M948.72 378.7L1094.09 409.53" stroke="rgba(0, 255, 162, 1)" stroke-width="1.5"></path><path d="M951.07 497.05L951.07 497.05" stroke="rgba(0, 255, 162, 1)" stroke-width="1.5"></path><path d="M951.07 497.05L1098.94 518.72" stroke="rgba(0, 255, 162, 1)" stroke-width="1.5"></path><path d="M951.07 497.05L1094.09 409.53" stroke="rgba(0, 255, 162, 1)" stroke-width="1.5"></path><path d="M953.88 709.22L953.88 709.22" stroke="rgba(0, 255, 162, 1)" stroke-width="1.5"></path><path d="M953.88 709.22L821.13 653.78" stroke="rgba(0, 255, 162, 1)" stroke-width="1.5"></path><path d="M953.88 709.22L1111.08 677.65" stroke="rgba(0, 255, 162, 1)" stroke-width="1.5"></path><path d="M953.88 709.22L951.07 497.05" stroke="rgba(0, 255, 162, 1)" stroke-width="1.5"></path><path d="M1097.29 -38.11L1097.29 -38.11" stroke="rgba(0, 255, 162, 1)" stroke-width="1.5"></path><path d="M1097.29 -38.11L1107.98 102.04" stroke="rgba(0, 255, 162, 1)" stroke-width="1.5"></path><path d="M1107.98 102.04L1107.98 102.04" stroke="rgba(0, 255, 162, 1)" stroke-width="1.5"></path><path d="M1107.98 102.04L1129.01 219.26" stroke="rgba(0, 255, 162, 1)" stroke-width="1.5"></path><path d="M1107.98 102.04L1248.7 102.25" stroke="rgba(0, 255, 162, 1)" stroke-width="1.5"></path><path d="M1129.01 219.26L1129.01 219.26" stroke="rgba(0, 255, 162, 1)" stroke-width="1.5"></path><path d="M1129.01 219.26L1248.93 188.61" stroke="rgba(0, 255, 162, 1)" stroke-width="1.5"></path><path d="M1129.01 219.26L1248.7 102.25" stroke="rgba(0, 255, 162, 1)" stroke-width="1.5"></path><path d="M1129.01 219.26L1094.09 409.53" stroke="rgba(0, 255, 162, 1)" stroke-width="1.5"></path><path d="M1129.01 219.26L1273.78 361.03" stroke="rgba(0, 255, 162, 1)" stroke-width="1.5"></path><path d="M1094.09 409.53L1094.09 409.53" stroke="rgba(0, 255, 162, 1)" stroke-width="1.5"></path><path d="M1094.09 409.53L1098.94 518.72" stroke="rgba(0, 255, 162, 1)" stroke-width="1.5"></path><path d="M1094.09 409.53L1273.78 361.03" stroke="rgba(0, 255, 162, 1)" stroke-width="1.5"></path><path d="M1098.94 518.72L1098.94 518.72" stroke="rgba(0, 255, 162, 1)" stroke-width="1.5"></path><path d="M1098.94 518.72L1111.08 677.65" stroke="rgba(0, 255, 162, 1)" stroke-width="1.5"></path><path d="M1098.94 518.72L948.72 378.7" stroke="rgba(0, 255, 162, 1)" stroke-width="1.5"></path><path d="M1098.94 518.72L1265.74 662.7" stroke="rgba(0, 255, 162, 1)" stroke-width="1.5"></path><path d="M1111.08 677.65L1111.08 677.65" stroke="rgba(0, 255, 162, 1)" stroke-width="1.5"></path><path d="M1111.08 677.65L1265.74 662.7" stroke="rgba(0, 255, 162, 1)" stroke-width="1.5"></path><path d="M1263.11 -78.41L1263.11 -78.41" stroke="rgba(0, 255, 162, 1)" stroke-width="1.5"></path><path d="M1263.11 -78.41L1432.26 -72.89" stroke="rgba(0, 255, 162, 1)" stroke-width="1.5"></path><path d="M1248.7 102.25L1248.7 102.25" stroke="rgba(0, 255, 162, 1)" stroke-width="1.5"></path><path d="M1248.7 102.25L1248.93 188.61" stroke="rgba(0, 255, 162, 1)" stroke-width="1.5"></path><path d="M1248.93 188.61L1248.93 188.61" stroke="rgba(0, 255, 162, 1)" stroke-width="1.5"></path><path d="M1273.78 361.03L1273.78 361.03" stroke="rgba(0, 255, 162, 1)" stroke-width="1.5"></path><path d="M1273.78 361.03L1403.81 394.88" stroke="rgba(0, 255, 162, 1)" stroke-width="1.5"></path><path d="M1273.78 361.03L1248.93 188.61" stroke="rgba(0, 255, 162, 1)" stroke-width="1.5"></path><path d="M1273.78 361.03L1431.09 259.05" stroke="rgba(0, 255, 162, 1)" stroke-width="1.5"></path><path d="M1273.78 361.03L1098.94 518.72" stroke="rgba(0, 255, 162, 1)" stroke-width="1.5"></path><path d="M1265.74 662.7L1265.74 662.7" stroke="rgba(0, 255, 162, 1)" stroke-width="1.5"></path><path d="M1265.74 662.7L1446.96 657.76" stroke="rgba(0, 255, 162, 1)" stroke-width="1.5"></path><path d="M1265.74 662.7L1403.81 394.88" stroke="rgba(0, 255, 162, 1)" stroke-width="1.5"></path><path d="M1432.26 -72.89L1432.26 -72.89" stroke="rgba(0, 255, 162, 1)" stroke-width="1.5"></path><path d="M1432.26 -72.89L1548.16 -103.72" stroke="rgba(0, 255, 162, 1)" stroke-width="1.5"></path><path d="M1444.24 72.96L1444.24 72.96" stroke="rgba(0, 255, 162, 1)" stroke-width="1.5"></path><path d="M1444.24 72.96L1544.34 66.89" stroke="rgba(0, 255, 162, 1)" stroke-width="1.5"></path><path d="M1444.24 72.96L1432.26 -72.89" stroke="rgba(0, 255, 162, 1)" stroke-width="1.5"></path><path d="M1444.24 72.96L1431.09 259.05" stroke="rgba(0, 255, 162, 1)" stroke-width="1.5"></path><path d="M1444.24 72.96L1248.7 102.25" stroke="rgba(0, 255, 162, 1)" stroke-width="1.5"></path><path d="M1431.09 259.05L1431.09 259.05" stroke="rgba(0, 255, 162, 1)" stroke-width="1.5"></path><path d="M1431.09 259.05L1564.79 233.62" stroke="rgba(0, 255, 162, 1)" stroke-width="1.5"></path><path d="M1431.09 259.05L1403.81 394.88" stroke="rgba(0, 255, 162, 1)" stroke-width="1.5"></path><path d="M1431.09 259.05L1248.93 188.61" stroke="rgba(0, 255, 162, 1)" stroke-width="1.5"></path><path d="M1431.09 259.05L1591.78 398.24" stroke="rgba(0, 255, 162, 1)" stroke-width="1.5"></path><path d="M1403.81 394.88L1403.81 394.88" stroke="rgba(0, 255, 162, 1)" stroke-width="1.5"></path><path d="M1403.81 394.88L1591.78 398.24" stroke="rgba(0, 255, 162, 1)" stroke-width="1.5"></path><path d="M1403.81 394.88L1564.79 233.62" stroke="rgba(0, 255, 162, 1)" stroke-width="1.5"></path><path d="M1403.81 394.88L1248.93 188.61" stroke="rgba(0, 255, 162, 1)" stroke-width="1.5"></path><path d="M1403.81 394.88L1446.96 657.76" stroke="rgba(0, 255, 162, 1)" stroke-width="1.5"></path><path d="M1446.96 657.76L1446.96 657.76" stroke="rgba(0, 255, 162, 1)" stroke-width="1.5"></path><path d="M1446.96 657.76L1591.78 398.24" stroke="rgba(0, 255, 162, 1)" stroke-width="1.5"></path><path d="M1548.16 -103.72L1548.16 -103.72" stroke="rgba(0, 255, 162, 1)" stroke-width="1.5"></path><path d="M1548.16 -103.72L1544.34 66.89" stroke="rgba(0, 255, 162, 1)" stroke-width="1.5"></path><path d="M1548.16 -103.72L1444.24 72.96" stroke="rgba(0, 255, 162, 1)" stroke-width="1.5"></path><path d="M1548.16 -103.72L1263.11 -78.41" stroke="rgba(0, 255, 162, 1)" stroke-width="1.5"></path><path d="M1548.16 -103.72L1564.79 233.62" stroke="rgba(0, 255, 162, 1)" stroke-width="1.5"></path><path d="M1548.16 -103.72L1248.7 102.25" stroke="rgba(0, 255, 162, 1)" stroke-width="1.5"></path><path d="M1544.34 66.89L1544.34 66.89" stroke="rgba(0, 255, 162, 1)" stroke-width="1.5"></path><path d="M1544.34 66.89L1564.79 233.62" stroke="rgba(0, 255, 162, 1)" stroke-width="1.5"></path><path d="M1544.34 66.89L1432.26 -72.89" stroke="rgba(0, 255, 162, 1)" stroke-width="1.5"></path><path d="M1564.79 233.62L1564.79 233.62" stroke="rgba(0, 255, 162, 1)" stroke-width="1.5"></path><path d="M1564.79 233.62L1591.78 398.24" stroke="rgba(0, 255, 162, 1)" stroke-width="1.5"></path><path d="M1591.78 398.24L1591.78 398.24" stroke="rgba(0, 255, 162, 1)" stroke-width="1.5"></path><circle r="5" cx="-70.82" cy="411.52" fill="rgba(0, 255, 162, 1)"></circle><circle r="5" cx="-71.36" cy="491.8" fill="rgba(0, 255, 162, 1)"></circle><circle r="5" cx="57.64" cy="400.72" fill="rgba(0, 255, 162, 1)"></circle><circle r="5" cx="61.25" cy="640.49" fill="rgba(0, 255, 162, 1)"></circle><circle r="5" cx="220.86" cy="343.88" fill="rgba(0, 255, 162, 1)"></circle><circle r="5" cx="261.64" cy="527.48" fill="rgba(0, 255, 162, 1)"></circle><circle r="5" cx="257.92" cy="658.94" fill="rgba(0, 255, 162, 1)"></circle><circle r="5" cx="363.61" cy="356.47" fill="rgba(0, 255, 162, 1)"></circle><circle r="5" cx="383.67" cy="535.42" fill="rgba(0, 255, 162, 1)"></circle><circle r="5" cx="544.48" cy="407.26" fill="rgba(0, 255, 162, 1)"></circle><circle r="5" cx="532.88" cy="515.3" fill="rgba(0, 255, 162, 1)"></circle><circle r="5" cx="501.15" cy="669.3" fill="rgba(0, 255, 162, 1)"></circle><circle r="5" cx="705.25" cy="222.64" fill="rgba(0, 255, 162, 1)"></circle><circle r="5" cx="646.27" cy="394.4" fill="rgba(0, 255, 162, 1)"></circle><circle r="5" cx="709.34" cy="550.04" fill="rgba(0, 255, 162, 1)"></circle><circle r="5" cx="705.84" cy="686.03" fill="rgba(0, 255, 162, 1)"></circle><circle r="5" cx="840.38" cy="245.29" fill="rgba(0, 255, 162, 1)"></circle><circle r="5" cx="817.9" cy="380.87" fill="rgba(0, 255, 162, 1)"></circle><circle r="5" cx="795.11" cy="496.4" fill="rgba(0, 255, 162, 1)"></circle><circle r="5" cx="821.13" cy="653.78" fill="rgba(0, 255, 162, 1)"></circle><circle r="5" cx="992.39" cy="-111.69" fill="rgba(0, 255, 162, 1)"></circle><circle r="5" cx="939.38" cy="103.01" fill="rgba(0, 255, 162, 1)"></circle><circle r="5" cx="952.51" cy="203.13" fill="rgba(0, 255, 162, 1)"></circle><circle r="5" cx="948.72" cy="378.7" fill="rgba(0, 255, 162, 1)"></circle><circle r="5" cx="951.07" cy="497.05" fill="rgba(0, 255, 162, 1)"></circle><circle r="5" cx="953.88" cy="709.22" fill="rgba(0, 255, 162, 1)"></circle><circle r="5" cx="1097.29" cy="-38.11" fill="rgba(0, 255, 162, 1)"></circle><circle r="5" cx="1107.98" cy="102.04" fill="rgba(0, 255, 162, 1)"></circle><circle r="5" cx="1129.01" cy="219.26" fill="rgba(0, 255, 162, 1)"></circle><circle r="5" cx="1094.09" cy="409.53" fill="rgba(0, 255, 162, 1)"></circle><circle r="5" cx="1098.94" cy="518.72" fill="rgba(0, 255, 162, 1)"></circle><circle r="5" cx="1111.08" cy="677.65" fill="rgba(0, 255, 162, 1)"></circle><circle r="5" cx="1263.11" cy="-78.41" fill="rgba(0, 255, 162, 1)"></circle><circle r="5" cx="1248.7" cy="102.25" fill="rgba(0, 255, 162, 1)"></circle><circle r="5" cx="1248.93" cy="188.61" fill="rgba(0, 255, 162, 1)"></circle><circle r="5" cx="1273.78" cy="361.03" fill="rgba(0, 255, 162, 1)"></circle><circle r="5" cx="1265.74" cy="662.7" fill="rgba(0, 255, 162, 1)"></circle><circle r="5" cx="1432.26" cy="-72.89" fill="rgba(0, 255, 162, 1)"></circle><circle r="5" cx="1444.24" cy="72.96" fill="rgba(0, 255, 162, 1)"></circle><circle r="5" cx="1431.09" cy="259.05" fill="rgba(0, 255, 162, 1)"></circle><circle r="5" cx="1403.81" cy="394.88" fill="rgba(0, 255, 162, 1)"></circle><circle r="5" cx="1446.96" cy="657.76" fill="rgba(0, 255, 162, 1)"></circle><circle r="5" cx="1548.16" cy="-103.72" fill="rgba(0, 255, 162, 1)"></circle><circle r="5" cx="1544.34" cy="66.89" fill="rgba(0, 255, 162, 1)"></circle><circle r="5" cx="1564.79" cy="233.62" fill="rgba(0, 255, 162, 1)"></circle><circle r="5" cx="1591.78" cy="398.24" fill="rgba(0, 255, 162, 1)"></circle><path d="M-86.11 645.34L-86.11 645.34" stroke="hsl(152.5, 100%, 51.7%)" stroke-width="1.5"></path><path d="M-86.11 645.34L-84.12 525.97" stroke="hsl(152.5, 100%, 51.7%)" stroke-width="1.5"></path><path d="M-86.11 645.34L96.02 504.62" stroke="hsl(152.5, 100%, 51.7%)" stroke-width="1.5"></path><path d="M707.46 711.18L707.46 711.18" stroke="hsl(152.5, 100%, 51.7%)" stroke-width="1.5"></path><path d="M707.46 711.18L857.32 680.75" stroke="hsl(152.5, 100%, 51.7%)" stroke-width="1.5"></path><path d="M707.46 711.18L512.75 640.25" stroke="hsl(152.5, 100%, 51.7%)" stroke-width="1.5"></path><path d="M707.46 711.18L941.03 697.11" stroke="hsl(152.5, 100%, 51.7%)" stroke-width="1.5"></path><path d="M707.46 711.18L559.23 501.37" stroke="hsl(152.5, 100%, 51.7%)" stroke-width="1.5"></path><path d="M1107.19 201.84L1107.19 201.84" stroke="hsl(152.5, 100%, 51.7%)" stroke-width="1.5"></path><path d="M1107.19 201.84L1253.45 211.67" stroke="hsl(152.5, 100%, 51.7%)" stroke-width="1.5"></path><path d="M1107.19 201.84L1105.48 350.98" stroke="hsl(152.5, 100%, 51.7%)" stroke-width="1.5"></path><path d="M1107.19 201.84L1278.4 74.8" stroke="hsl(152.5, 100%, 51.7%)" stroke-width="1.5"></path><path d="M1107.19 201.84L1261.03 351.28" stroke="hsl(152.5, 100%, 51.7%)" stroke-width="1.5"></path><path d="M1107.19 201.84L941.52 378.62" stroke="hsl(152.5, 100%, 51.7%)" stroke-width="1.5"></path><path d="M1105.48 350.98L1105.48 350.98" stroke="hsl(152.5, 100%, 51.7%)" stroke-width="1.5"></path><path d="M1105.48 350.98L1116.94 504.3" stroke="hsl(152.5, 100%, 51.7%)" stroke-width="1.5"></path><path d="M1105.48 350.98L1261.03 351.28" stroke="hsl(152.5, 100%, 51.7%)" stroke-width="1.5"></path><path d="M1105.48 350.98L941.52 378.62" stroke="hsl(152.5, 100%, 51.7%)" stroke-width="1.5"></path><path d="M1105.48 350.98L1253.45 211.67" stroke="hsl(152.5, 100%, 51.7%)" stroke-width="1.5"></path><path d="M1278.4 74.8L1278.4 74.8" stroke="hsl(152.5, 100%, 51.7%)" stroke-width="1.5"></path><path d="M1278.4 74.8L1253.45 211.67" stroke="hsl(152.5, 100%, 51.7%)" stroke-width="1.5"></path><path d="M1278.4 74.8L1306.87 -75.42" stroke="hsl(152.5, 100%, 51.7%)" stroke-width="1.5"></path><path d="M1278.4 74.8L1442.71 69.89" stroke="hsl(152.5, 100%, 51.7%)" stroke-width="1.5"></path><path d="M1278.4 74.8L1449.53 -64.29" stroke="hsl(152.5, 100%, 51.7%)" stroke-width="1.5"></path><path d="M1278.4 74.8L1451.45 254.28" stroke="hsl(152.5, 100%, 51.7%)" stroke-width="1.5"></path><path d="M1449.53 -64.29L1449.53 -64.29" stroke="hsl(152.5, 100%, 51.7%)" stroke-width="1.5"></path><path d="M1449.53 -64.29L1538.45 -62.6" stroke="hsl(152.5, 100%, 51.7%)" stroke-width="1.5"></path><path d="M1449.53 -64.29L1442.71 69.89" stroke="hsl(152.5, 100%, 51.7%)" stroke-width="1.5"></path><path d="M1449.53 -64.29L1306.87 -75.42" stroke="hsl(152.5, 100%, 51.7%)" stroke-width="1.5"></path><path d="M1449.53 -64.29L1585.68 53.02" stroke="hsl(152.5, 100%, 51.7%)" stroke-width="1.5"></path><path d="M1451.45 254.28L1451.45 254.28" stroke="hsl(152.5, 100%, 51.7%)" stroke-width="1.5"></path><path d="M1451.45 254.28L1439.37 379.13" stroke="hsl(152.5, 100%, 51.7%)" stroke-width="1.5"></path><path d="M1451.45 254.28L1537.68 358.75" stroke="hsl(152.5, 100%, 51.7%)" stroke-width="1.5"></path><path d="M1439.37 379.13L1439.37 379.13" stroke="hsl(152.5, 100%, 51.7%)" stroke-width="1.5"></path><path d="M1439.37 379.13L1537.68 358.75" stroke="hsl(152.5, 100%, 51.7%)" stroke-width="1.5"></path><path d="M1427.26 637.89L1427.26 637.89" stroke="hsl(152.5, 100%, 51.7%)" stroke-width="1.5"></path><path d="M1427.26 637.89L1428.24 511.49" stroke="hsl(152.5, 100%, 51.7%)" stroke-width="1.5"></path><path d="M1427.26 637.89L1281.99 709.86" stroke="hsl(152.5, 100%, 51.7%)" stroke-width="1.5"></path><path d="M1427.26 637.89L1580.16 706.67" stroke="hsl(152.5, 100%, 51.7%)" stroke-width="1.5"></path><path d="M1427.26 637.89L1582.11 552.65" stroke="hsl(152.5, 100%, 51.7%)" stroke-width="1.5"></path><path d="M1427.26 637.89L1439.37 379.13" stroke="hsl(152.5, 100%, 51.7%)" stroke-width="1.5"></path><path d="M1427.26 637.89L1151.38 692.97" stroke="hsl(152.5, 100%, 51.7%)" stroke-width="1.5"></path><path d="M1582.11 552.65L1582.11 552.65" stroke="hsl(152.5, 100%, 51.7%)" stroke-width="1.5"></path><path d="M1582.11 552.65L1580.16 706.67" stroke="hsl(152.5, 100%, 51.7%)" stroke-width="1.5"></path><path d="M1582.11 552.65L1428.24 511.49" stroke="hsl(152.5, 100%, 51.7%)" stroke-width="1.5"></path><path d="M1582.11 552.65L1537.68 358.75" stroke="hsl(152.5, 100%, 51.7%)" stroke-width="1.5"></path><path d="M1582.11 552.65L1439.37 379.13" stroke="hsl(152.5, 100%, 51.7%)" stroke-width="1.5"></path><path d="M1580.16 706.67L1580.16 706.67" stroke="hsl(152.5, 100%, 51.7%)" stroke-width="1.5"></path><path d="M1580.16 706.67L1428.24 511.49" stroke="hsl(152.5, 100%, 51.7%)" stroke-width="1.5"></path><path d="M1580.16 706.67L1281.99 709.86" stroke="hsl(152.5, 100%, 51.7%)" stroke-width="1.5"></path><path d="M-84.12 525.97L-84.12 525.97" stroke="hsl(152.5, 100%, 51.7%)" stroke-width="1.5"></path><path d="M-84.12 525.97L96.02 504.62" stroke="hsl(152.5, 100%, 51.7%)" stroke-width="1.5"></path><path d="M96.02 504.62L96.02 504.62" stroke="hsl(152.5, 100%, 51.7%)" stroke-width="1.5"></path><path d="M96.02 504.62L193.78 533.98" stroke="hsl(152.5, 100%, 51.7%)" stroke-width="1.5"></path><path d="M96.02 504.62L230.62 674.38" stroke="hsl(152.5, 100%, 51.7%)" stroke-width="1.5"></path><path d="M193.78 533.98L193.78 533.98" stroke="hsl(152.5, 100%, 51.7%)" stroke-width="1.5"></path><path d="M193.78 533.98L230.62 674.38" stroke="hsl(152.5, 100%, 51.7%)" stroke-width="1.5"></path><path d="M193.78 533.98L343.82 504.11" stroke="hsl(152.5, 100%, 51.7%)" stroke-width="1.5"></path><path d="M193.78 533.98L392.76 654.74" stroke="hsl(152.5, 100%, 51.7%)" stroke-width="1.5"></path><path d="M230.62 674.38L230.62 674.38" stroke="hsl(152.5, 100%, 51.7%)" stroke-width="1.5"></path><path d="M230.62 674.38L392.76 654.74" stroke="hsl(152.5, 100%, 51.7%)" stroke-width="1.5"></path><path d="M230.62 674.38L343.82 504.11" stroke="hsl(152.5, 100%, 51.7%)" stroke-width="1.5"></path><path d="M230.62 674.38L512.75 640.25" stroke="hsl(152.5, 100%, 51.7%)" stroke-width="1.5"></path><path d="M343.82 504.11L343.82 504.11" stroke="hsl(152.5, 100%, 51.7%)" stroke-width="1.5"></path><path d="M343.82 504.11L392.76 654.74" stroke="hsl(152.5, 100%, 51.7%)" stroke-width="1.5"></path><path d="M392.76 654.74L392.76 654.74" stroke="hsl(152.5, 100%, 51.7%)" stroke-width="1.5"></path><path d="M392.76 654.74L512.75 640.25" stroke="hsl(152.5, 100%, 51.7%)" stroke-width="1.5"></path><path d="M392.76 654.74L559.23 501.37" stroke="hsl(152.5, 100%, 51.7%)" stroke-width="1.5"></path><path d="M559.23 501.37L559.23 501.37" stroke="hsl(152.5, 100%, 51.7%)" stroke-width="1.5"></path><path d="M559.23 501.37L512.75 640.25" stroke="hsl(152.5, 100%, 51.7%)" stroke-width="1.5"></path><path d="M512.75 640.25L512.75 640.25" stroke="hsl(152.5, 100%, 51.7%)" stroke-width="1.5"></path><path d="M673.03 395.66L673.03 395.66" stroke="hsl(152.5, 100%, 51.7%)" stroke-width="1.5"></path><path d="M673.03 395.66L559.23 501.37" stroke="hsl(152.5, 100%, 51.7%)" stroke-width="1.5"></path><path d="M673.03 395.66L941.52 378.62" stroke="hsl(152.5, 100%, 51.7%)" stroke-width="1.5"></path><path d="M673.03 395.66L512.75 640.25" stroke="hsl(152.5, 100%, 51.7%)" stroke-width="1.5"></path><path d="M857.32 680.75L857.32 680.75" stroke="hsl(152.5, 100%, 51.7%)" stroke-width="1.5"></path><path d="M857.32 680.75L941.03 697.11" stroke="hsl(152.5, 100%, 51.7%)" stroke-width="1.5"></path><path d="M857.32 680.75L1000.47 548.33" stroke="hsl(152.5, 100%, 51.7%)" stroke-width="1.5"></path><path d="M857.32 680.75L1151.38 692.97" stroke="hsl(152.5, 100%, 51.7%)" stroke-width="1.5"></path><path d="M857.32 680.75L941.52 378.62" stroke="hsl(152.5, 100%, 51.7%)" stroke-width="1.5"></path><path d="M941.52 378.62L941.52 378.62" stroke="hsl(152.5, 100%, 51.7%)" stroke-width="1.5"></path><path d="M1000.47 548.33L1000.47 548.33" stroke="hsl(152.5, 100%, 51.7%)" stroke-width="1.5"></path><path d="M1000.47 548.33L1116.94 504.3" stroke="hsl(152.5, 100%, 51.7%)" stroke-width="1.5"></path><path d="M1000.47 548.33L941.03 697.11" stroke="hsl(152.5, 100%, 51.7%)" stroke-width="1.5"></path><path d="M941.03 697.11L941.03 697.11" stroke="hsl(152.5, 100%, 51.7%)" stroke-width="1.5"></path><path d="M941.03 697.11L1151.38 692.97" stroke="hsl(152.5, 100%, 51.7%)" stroke-width="1.5"></path><path d="M1116.94 504.3L1116.94 504.3" stroke="hsl(152.5, 100%, 51.7%)" stroke-width="1.5"></path><path d="M1116.94 504.3L1151.38 692.97" stroke="hsl(152.5, 100%, 51.7%)" stroke-width="1.5"></path><path d="M1116.94 504.3L1261.03 351.28" stroke="hsl(152.5, 100%, 51.7%)" stroke-width="1.5"></path><path d="M1151.38 692.97L1151.38 692.97" stroke="hsl(152.5, 100%, 51.7%)" stroke-width="1.5"></path><path d="M1151.38 692.97L1281.99 709.86" stroke="hsl(152.5, 100%, 51.7%)" stroke-width="1.5"></path><path d="M1151.38 692.97L1000.47 548.33" stroke="hsl(152.5, 100%, 51.7%)" stroke-width="1.5"></path><path d="M1306.87 -75.42L1306.87 -75.42" stroke="hsl(152.5, 100%, 51.7%)" stroke-width="1.5"></path><path d="M1306.87 -75.42L1442.71 69.89" stroke="hsl(152.5, 100%, 51.7%)" stroke-width="1.5"></path><path d="M1306.87 -75.42L1538.45 -62.6" stroke="hsl(152.5, 100%, 51.7%)" stroke-width="1.5"></path><path d="M1306.87 -75.42L1253.45 211.67" stroke="hsl(152.5, 100%, 51.7%)" stroke-width="1.5"></path><path d="M1253.45 211.67L1253.45 211.67" stroke="hsl(152.5, 100%, 51.7%)" stroke-width="1.5"></path><path d="M1253.45 211.67L1261.03 351.28" stroke="hsl(152.5, 100%, 51.7%)" stroke-width="1.5"></path><path d="M1253.45 211.67L1451.45 254.28" stroke="hsl(152.5, 100%, 51.7%)" stroke-width="1.5"></path><path d="M1253.45 211.67L1442.71 69.89" stroke="hsl(152.5, 100%, 51.7%)" stroke-width="1.5"></path><path d="M1261.03 351.28L1261.03 351.28" stroke="hsl(152.5, 100%, 51.7%)" stroke-width="1.5"></path><path d="M1281.99 709.86L1281.99 709.86" stroke="hsl(152.5, 100%, 51.7%)" stroke-width="1.5"></path><path d="M1442.71 69.89L1442.71 69.89" stroke="hsl(152.5, 100%, 51.7%)" stroke-width="1.5"></path><path d="M1442.71 69.89L1585.68 53.02" stroke="hsl(152.5, 100%, 51.7%)" stroke-width="1.5"></path><path d="M1442.71 69.89L1538.45 -62.6" stroke="hsl(152.5, 100%, 51.7%)" stroke-width="1.5"></path><path d="M1428.24 511.49L1428.24 511.49" stroke="hsl(152.5, 100%, 51.7%)" stroke-width="1.5"></path><path d="M1428.24 511.49L1439.37 379.13" stroke="hsl(152.5, 100%, 51.7%)" stroke-width="1.5"></path><path d="M1428.24 511.49L1537.68 358.75" stroke="hsl(152.5, 100%, 51.7%)" stroke-width="1.5"></path><path d="M1428.24 511.49L1261.03 351.28" stroke="hsl(152.5, 100%, 51.7%)" stroke-width="1.5"></path><path d="M1428.24 511.49L1281.99 709.86" stroke="hsl(152.5, 100%, 51.7%)" stroke-width="1.5"></path><path d="M1538.45 -62.6L1538.45 -62.6" stroke="hsl(152.5, 100%, 51.7%)" stroke-width="1.5"></path><path d="M1538.45 -62.6L1585.68 53.02" stroke="hsl(152.5, 100%, 51.7%)" stroke-width="1.5"></path><path d="M1585.68 53.02L1585.68 53.02" stroke="hsl(152.5, 100%, 51.7%)" stroke-width="1.5"></path><path d="M1585.68 53.02L1590.14 249.49" stroke="hsl(152.5, 100%, 51.7%)" stroke-width="1.5"></path><path d="M1585.68 53.02L1451.45 254.28" stroke="hsl(152.5, 100%, 51.7%)" stroke-width="1.5"></path><path d="M1590.14 249.49L1590.14 249.49" stroke="hsl(152.5, 100%, 51.7%)" stroke-width="1.5"></path><path d="M1590.14 249.49L1537.68 358.75" stroke="hsl(152.5, 100%, 51.7%)" stroke-width="1.5"></path><path d="M1590.14 249.49L1451.45 254.28" stroke="hsl(152.5, 100%, 51.7%)" stroke-width="1.5"></path><path d="M1537.68 358.75L1537.68 358.75" stroke="hsl(152.5, 100%, 51.7%)" stroke-width="1.5"></path><circle r="25" cx="-86.11" cy="645.34" fill="url(#SvgjsRadialGradient1031)"></circle><circle r="25" cx="707.46" cy="711.18" fill="url(#SvgjsRadialGradient1031)"></circle><circle r="25" cx="1107.19" cy="201.84" fill="url(#SvgjsRadialGradient1031)"></circle><circle r="25" cx="1105.48" cy="350.98" fill="url(#SvgjsRadialGradient1031)"></circle><circle r="25" cx="1278.4" cy="74.8" fill="url(#SvgjsRadialGradient1031)"></circle><circle r="25" cx="1449.53" cy="-64.29" fill="url(#SvgjsRadialGradient1031)"></circle><circle r="25" cx="1451.45" cy="254.28" fill="url(#SvgjsRadialGradient1031)"></circle><circle r="25" cx="1439.37" cy="379.13" fill="url(#SvgjsRadialGradient1031)"></circle><circle r="25" cx="1427.26" cy="637.89" fill="url(#SvgjsRadialGradient1031)"></circle><circle r="25" cx="1582.11" cy="552.65" fill="url(#SvgjsRadialGradient1031)"></circle><circle r="25" cx="1580.16" cy="706.67" fill="url(#SvgjsRadialGradient1031)"></circle><circle r="5" cx="-84.12" cy="525.97" fill="#80e5b7"></circle><circle r="5" cx="96.02" cy="504.62" fill="#80e5b7"></circle><circle r="5" cx="193.78" cy="533.98" fill="#80e5b7"></circle><circle r="5" cx="230.62" cy="674.38" fill="#80e5b7"></circle><circle r="5" cx="343.82" cy="504.11" fill="#80e5b7"></circle><circle r="5" cx="392.76" cy="654.74" fill="#80e5b7"></circle><circle r="5" cx="559.23" cy="501.37" fill="#80e5b7"></circle><circle r="5" cx="512.75" cy="640.25" fill="#80e5b7"></circle><circle r="5" cx="673.03" cy="395.66" fill="#80e5b7"></circle><circle r="5" cx="857.32" cy="680.75" fill="#80e5b7"></circle><circle r="5" cx="941.52" cy="378.62" fill="#80e5b7"></circle><circle r="5" cx="1000.47" cy="548.33" fill="#80e5b7"></circle><circle r="5" cx="941.03" cy="697.11" fill="#80e5b7"></circle><circle r="5" cx="1116.94" cy="504.3" fill="#80e5b7"></circle><circle r="5" cx="1151.38" cy="692.97" fill="#80e5b7"></circle><circle r="5" cx="1306.87" cy="-75.42" fill="#80e5b7"></circle><circle r="5" cx="1253.45" cy="211.67" fill="#80e5b7"></circle><circle r="5" cx="1261.03" cy="351.28" fill="#80e5b7"></circle><circle r="5" cx="1281.99" cy="709.86" fill="#80e5b7"></circle><circle r="5" cx="1442.71" cy="69.89" fill="#80e5b7"></circle><circle r="5" cx="1428.24" cy="511.49" fill="#80e5b7"></circle><circle r="5" cx="1538.45" cy="-62.6" fill="#80e5b7"></circle><circle r="5" cx="1585.68" cy="53.02" fill="#80e5b7"></circle><circle r="5" cx="1590.14" cy="249.49" fill="#80e5b7"></circle><circle r="5" cx="1537.68" cy="358.75" fill="#80e5b7"></circle></g><defs><mask id="SvgjsMask1030"><rect width="1440" height="560" fill="#ffffff"></rect></mask><radialGradient id="SvgjsRadialGradient1031"><stop stop-color="#ffffff" offset="0.1"></stop><stop stop-color="rgba(0, 203, 110, 1)" offset="0.2"></stop><stop stop-color="rgba(0, 203, 110, 0)" offset="1"></stop></radialGradient></defs></svg>